inDegrees=yes
name=ik_S57_A06_T01
DataType=double
version=3
OpenSimVersion=4.3-2021-08-27-4bc7ad9
endheader
time	pelvis_tilt	pelvis_list	pelvis_rotation	pelvis_tx	pelvis_ty	pelvis_tz	hip_flexion_r	hip_adduction_r	hip_rotation_r	knee_angle_r	knee_angle_r_beta	ankle_angle_r	subtalar_angle_r	mtp_angle_r	hip_flexion_l	hip_adduction_l	hip_rotation_l	knee_angle_l	knee_angle_l_beta	ankle_angle_l	subtalar_angle_l	mtp_angle_l	lumbar_extension	lumbar_bending	lumbar_rotation	arm_flex_r	arm_add_r	arm_rot_r	elbow_flex_r	pro_sup_r	wrist_flex_r	wrist_dev_r	arm_flex_l	arm_add_l	arm_rot_l	elbow_flex_l	pro_sup_l	wrist_flex_l	wrist_dev_l
0	0	0	0	0	0.9399999999999999	0	0	0	0	0	0	0	0	0	0	0	0	0	0	0	0	0	0	0	0	0	0	0	0	89.99999999963507	0	0	0	0	0	0	89.99999999869995	0	0
0.02	-5.320533473132119	-3.054941499777196	1.761179560355318	0	0.9399999999999999	0	8.40551391274092	-3.843941303417134	-2.822918378843482	11.40188721972719	0.1990004729253017	0	0	0	8.40551391274092	-3.843941303417134	-2.822918378843482	11.40188721972719	0.1990004729253017	0	0	0	-5.169369060274319	-3.391677661168411	0.2370512045331256	23.24104900485115	11.37233338051169	2.21763282598686	43.12993569252608	137.338181591776	0	0	11.43406455516854	-13.8223307982732	9.657189967029664	43.67517460824819	127.6940811850283	0	0
0.04	-5.325675429518849	-3.053168706486571	1.777179592487865	0	0.9399999999999999	0	8.699535412618888	-3.993393355894712	-2.93017247158487	11.72048574353777	0.2045610661577897	0	0	0	8.699535412618888	-3.993393355894712	-2.93017247158487	11.72048574353777	0.2045610661577897	0	0	0	-5.175924198388136	-3.387335741212962	0.2307188763893071	23.22010896445791	11.34684126293009	2.284786356599159	43.1974113315958	137.2920534771252	0	0	11.41826493114678	-13.80824898188404	9.61367833758168	43.69054043937957	127.7003490345287	0	0
0.06	-5.323587759328746	-3.044139003396899	1.789988994054813	0	0.9399999999999999	0	8.925885605181776	-4.100451016726876	-3.012906911864693	11.93853782734945	0.2083667929611382	0	0	0	8.925885605181776	-4.100451016726876	-3.012906911864693	11.93853782734945	0.2083667929611382	0	0	0	-5.174414857739123	-3.376313341242302	0.2253809252321371	23.21915177840147	11.33508605347895	2.299391400290184	43.16605191911871	137.3292953097726	0	0	11.40394991883125	-13.7637166510581	9.608325867447759	43.66231709116791	127.7155343712334	0	0
0.08	-5.320709233812626	-3.043428419534604	1.7844689695241	0	0.9399999999999999	0	9.05503910314156	-4.152818827244442	-3.056671669700458	12.06406054263705	0.2105575776289503	0	0	0	9.05503910314156	-4.152818827244442	-3.056671669700458	12.06406054263705	0.2105575776289503	0	0	0	-5.171540110935646	-3.37578958269965	0.2383995349102681	23.19866362204924	11.31116669128073	2.284865321455626	43.21447107346948	137.2657297958337	0	0	11.39283676185268	-13.75831382808789	9.627334647206425	43.72314077257383	127.6519530890462	0	0
0.1	-5.304194980908437	-3.042331968678222	1.810016958410838	0	0.9399999999999999	0	9.215373324930063	-4.221743377226709	-3.113955781117357	12.20707016680463	0.2130535664327141	0	0	0	9.215373324930063	-4.221743377226709	-3.113955781117357	12.20707016680463	0.2130535664327141	0	0	0	-5.155480952171583	-3.37383726761574	0.2397936626030303	23.16108982662076	11.3063300687897	2.2547072865087	43.21968657614396	137.2606033055682	0	0	11.37202840550239	-13.75381831135794	9.64032758575938	43.71500967096455	127.6403429735017	0	0
0.12	-5.304940684022158	-3.044900694816959	1.821146381892261	0	0.9399999999999999	0	9.366452045696885	-4.283559680204319	-3.165260494915969	12.35440785372607	0.2156250941817658	0	0	0	9.366452045696885	-4.283559680204319	-3.165260494915969	12.35440785372607	0.2156250941817658	0	0	0	-5.156830456132938	-3.374727402423761	0.2349496391218274	23.15273842720398	11.27457226110462	2.240248251612649	43.23319685461841	137.2245250420127	0	0	11.37084634951029	-13.75858860781865	9.618882562215905	43.7249457023269	127.5689095187872	0	0
0.14	-5.297486030164059	-3.038760615111805	1.829373762471848	0	0.9399999999999999	0	9.586546860119789	-4.385238120159625	-3.245219791678819	12.56452712024282	0.2192923672043586	0	0	0	9.586546860119789	-4.385238120159625	-3.245219791678819	12.56452712024282	0.2192923672043586	0	0	0	-5.150304269003567	-3.366229897359761	0.2271973665149351	23.15087047681015	11.28935741488797	2.250183577332078	43.20256954339889	137.2775321105673	0	0	11.33516554856126	-13.72300688988677	9.581178376520661	43.70840915650633	127.5490020257264	0	0
0.16	-5.287981123014053	-3.043789652653247	1.867601856490916	0	0.9399999999999999	0	10.64488755131502	-4.830257435458198	-3.599071441677543	13.6963852857622	0.2390470188582549	0	0	0	10.64488755131502	-4.830257435458198	-3.599071441677543	13.6963852857622	0.2390470188582549	0	0	0	-5.132380982176285	-3.354382066033122	0.2151401827367602	23.11468446731223	11.24266935295571	2.276140990455813	43.23365462418538	137.1923105709021	0	0	11.31027523118935	-13.72780235685254	9.605460676236216	43.7951835239739	127.3368938262118	0	0
0.18	-5.277303824746371	-3.038931504277308	1.902960460712962	0	0.9399999999999999	0	10.94451271532087	-4.9478393022629	-3.700737259144274	13.97820496580574	0.2439657001719315	0	0	0	10.94451271532087	-4.9478393022629	-3.700737259144274	13.97820496580574	0.2439657001719315	0	0	0	-5.122831658044445	-3.347194607700841	0.210154682018497	23.08657660409127	11.18692315033478	2.288604614010099	43.34012639016433	137.0282115658191	0	0	11.27995706040893	-13.72354289923289	9.64312822310181	43.8535678985579	127.1660651713062	0	0
0.2	-5.277068721058345	-3.040932621147266	1.910089518987218	0	0.9399999999999999	0	10.98723082869651	-4.964592096813998	-3.715822542524365	14.01259500743448	0.2445659196282509	0	0	0	10.98723082869651	-4.964592096813998	-3.715822542524365	14.01259500743448	0.2445659196282509	0	0	0	-5.123533326928935	-3.347658698763265	0.1977926937210385	23.08361514831185	11.21280983321287	2.292928241407195	43.27415308404798	137.112923237059	0	0	11.28484470881723	-13.70354471192178	9.604220466357733	43.78886564761691	127.1827727485277	0	0
0.22	-5.26856295951144	-3.042542964522965	1.942672150869239	0	0.9399999999999999	0	11.22131180571681	-5.06336209018012	-3.797877665862718	14.23542567232894	0.2484550484050675	0	0	0	11.22131180571681	-5.06336209018012	-3.797877665862718	14.23542567232894	0.2484550484050675	0	0	0	-5.115494184178384	-3.348677203838664	0.2067763172625534	23.07860957938408	11.18321719801518	2.270229641249884	43.28846173252148	137.090761551059	0	0	11.26195998127324	-13.70160257873822	9.621643482899728	43.78657629117906	127.0735891424662	0	0
0.24	-5.248773702291905	-3.038265986134791	1.970643003602395	0	0.9399999999999999	0	11.43784238788973	-5.146758708211052	-3.871835890652249	14.43065705670907	0.2518624788657273	0	0	0	11.43784238788973	-5.146758708211052	-3.871835890652249	14.43065705670907	0.2518624788657273	0	0	0	-5.096232055323335	-3.343327010026199	0.2083616017073551	23.01205031458111	11.1591142903073	2.284572849702667	43.3211689377103	137.065405392009	0	0	11.23320271239579	-13.68440263353481	9.657405743598918	43.80034640737635	126.9912280903697	0	0
0.26	-5.23830283221708	-3.034693594213687	2.008938208516345	0	0.9399999999999999	0	11.74191092548665	-5.268854773224118	-3.9755453656171	14.72380153263018	0.2569788151545839	0	0	0	11.74191092548665	-5.268854773224118	-3.9755453656171	14.72380153263018	0.2569788151545839	0	0	0	-5.0864067922362	-3.338412094547069	0.2185918479559317	22.99521838543854	11.10513205254182	2.289469324272893	43.40155610898609	136.940131368708	0	0	11.20682909635557	-13.6568697432325	9.644205828116858	43.90515066038884	126.8443185425391	0	0
0.28	-5.221447762473493	-3.042061553524977	2.028453395033112	0	0.9399999999999999	0	11.84394430132095	-5.312413584724255	-4.0131164230283	14.80805876106671	0.2584493812094064	0	0	0	11.84394430132095	-5.312413584724255	-4.0131164230283	14.80805876106671	0.2584493812094064	0	0	0	-5.070515429529785	-3.345010468296336	0.2156323313774993	22.97432838525443	11.12023537724893	2.287306672033111	43.33750063825018	137.0194569754759	0	0	11.18304154809965	-13.63769340277345	9.60052849224062	43.841068295623	126.9110320672569	0	0
0.3	-5.212230968391766	-3.043095309710341	2.039603299891488	0	0.9399999999999999	0	12.00634891511446	-5.378122309401465	-4.069784279494733	14.95621450476963	0.2610351867427633	0	0	0	12.00634891511446	-5.378122309401465	-4.069784279494733	14.95621450476963	0.2610351867427633	0	0	0	-5.062111776876455	-3.34437241563612	0.2110558467096965	22.96361171170974	11.10691734287553	2.284638818662559	43.30550542585449	137.0629795630619	0	0	11.16818829010308	-13.62052796442639	9.57099568168378	43.83920780184454	126.8623071291421	0	0
0.32	-5.180289365985883	-3.032485185497455	2.078944303510785	0	0.9399999999999999	0	12.19153089752028	-5.448642196676635	-4.132536993541835	15.12566867128332	0.2639927198796498	0	0	0	12.19153089752028	-5.448642196676635	-4.132536993541835	15.12566867128332	0.2639927198796498	0	0	0	-5.029771421474925	-3.333777257754603	0.2198387222613598	22.88833597765763	11.06319503857236	2.27416259586356	43.33086012042327	136.9821564126418	0	0	11.13046534957986	-13.57854475143522	9.583531154650666	43.87082309841201	126.7862940102305	0	0
0.34	-5.170594751109904	-3.030245101684693	2.111402310174862	0	0.9399999999999999	0	12.38275307797058	-5.523827383039698	-4.198411409706353	15.30071991834245	0.2670479405005536	0	0	0	12.38275307797058	-5.523827383039698	-4.198411409706353	15.30071991834245	0.2670479405005536	0	0	0	-5.02035808582331	-3.330753138012975	0.229371532289292	22.88646693724953	11.06417194421483	2.267716921641837	43.30211927923612	137.0373655757859	0	0	11.13338647344581	-13.55514557507943	9.562995634362649	43.88568123827816	126.7875054785392	0	0
0.36	-5.135362194252941	-3.032121213179863	2.145513018152037	0	0.9399999999999999	0	12.54080354059705	-5.587496476963466	-4.253386887648891	15.44627881635936	0.2695884225265234	0	0	0	12.54080354059705	-5.587496476963466	-4.253386887648891	15.44627881635936	0.2695884225265234	0	0	0	-4.985076629760337	-3.332955683485807	0.2363976353581761	22.83093816002152	11.02660266005739	2.261524480494521	43.31147488788598	136.9846997234179	0	0	11.09013372334618	-13.54981912917901	9.531649199234145	43.890924543239	126.7646822564396	0	0
